{
	"asset":{
		"version":"2.0",
		"generator":""
	},
	"scenes":[{
		"nodes":[0]
	}],
	"meshes":[{
		"name":"Cube",
		"primitives":[{
			"attributes":{
				"POSITION":1,
				"NORMAL":2,
				"TEXCOORD_0":3
			},
			"indices":0,
			"material":0
		}]
	},
	{
		"name":"Cloner-Mat.2_1",
		"primitives":[{
			"attributes":{
				"POSITION":5,
				"NORMAL":6,
				"TEXCOORD_0":7
			},
			"indices":4,
			"material":1
		}]
	},
	{
		"name":"Cloner-Mat.1_1",
		"primitives":[{
			"attributes":{
				"POSITION":9,
				"NORMAL":10,
				"TEXCOORD_0":11
			},
			"indices":8,
			"material":2
		}]
	},
	{
		"name":"Cloner-default",
		"primitives":[{
			"attributes":{
				"POSITION":13,
				"NORMAL":14,
				"TEXCOORD_0":15
			},
			"indices":12,
			"material":3
		}]
	},
	{
		"name":"Cloner-Mat_1",
		"primitives":[{
			"attributes":{
				"POSITION":17,
				"NORMAL":18,
				"TEXCOORD_0":19
			},
			"indices":16,
			"material":4
		}]
	}],
	"nodes":[{
		"name":"urbanescapeobj2.obj",
		"children":[1,
		2]
	},
	{
		"name":"Cube",
		"mesh":0
	},
	{
		"name":"Cloner",
		"children":[3,
		4,
		5,
		6]
	},
	{
		"name":"Cloner-Mat.2_1",
		"mesh":1
	},
	{
		"name":"Cloner-Mat.1_1",
		"mesh":2
	},
	{
		"name":"Cloner-default",
		"mesh":3
	},
	{
		"name":"Cloner-Mat_1",
		"mesh":4
	}],
	"accessors":[{
		"bufferView":0,
		"type":"SCALAR",
		"componentType":5123,
		"count":36,
		"byteOffset":0,
		"min":[0],
		"max":[23]
	},
	{
		"bufferView":1,
		"type":"VEC3",
		"componentType":5126,
		"count":24,
		"byteOffset":0,
		"min":[-2.7012147903442385,
		0.9864568114280701,
		2.7172608375549318],
		"max":[-2.6959872245788576,
		0.9916846752166748,
		2.7224884033203127]
	},
	{
		"bufferView":1,
		"type":"VEC3",
		"componentType":5126,
		"count":24,
		"byteOffset":12,
		"min":[-1.0,
		-1.0,
		-1.0],
		"max":[1.0,
		1.0,
		1.0]
	},
	{
		"bufferView":1,
		"type":"VEC2",
		"componentType":5126,
		"count":24,
		"byteOffset":24,
		"min":[0.125,
		0.0],
		"max":[0.875,
		1.0]
	},
	{
		"bufferView":2,
		"type":"SCALAR",
		"componentType":5123,
		"count":276,
		"byteOffset":0,
		"min":[0],
		"max":[185]
	},
	{
		"bufferView":3,
		"type":"VEC3",
		"componentType":5126,
		"count":186,
		"byteOffset":0,
		"min":[-3.6447277069091799,
		0.20490746200084687,
		1.7737478017807007],
		"max":[-1.7524744272232056,
		1.7732338905334473,
		3.666001319885254]
	},
	{
		"bufferView":3,
		"type":"VEC3",
		"componentType":5126,
		"count":186,
		"byteOffset":12,
		"min":[-0.9721149802207947,
		-1.0,
		-0.9721149802207947],
		"max":[0.9721149802207947,
		0.0,
		0.23450511693954469]
	},
	{
		"bufferView":3,
		"type":"VEC2",
		"componentType":5126,
		"count":186,
		"byteOffset":24,
		"min":[0.0,
		0.0],
		"max":[1.0,
		1.0]
	},
	{
		"bufferView":4,
		"type":"SCALAR",
		"componentType":5123,
		"count":120,
		"byteOffset":0,
		"min":[0],
		"max":[79]
	},
	{
		"bufferView":5,
		"type":"VEC3",
		"componentType":5126,
		"count":80,
		"byteOffset":0,
		"min":[-3.6447277069091799,
		0.20490746200084687,
		1.7737478017807007],
		"max":[-1.7524744272232056,
		1.7732338905334473,
		3.666001319885254]
	},
	{
		"bufferView":5,
		"type":"VEC3",
		"componentType":5126,
		"count":80,
		"byteOffset":12,
		"min":[-0.23450511693954469,
		0.0,
		-0.9721149802207947],
		"max":[0.9721149802207947,
		1.0,
		0.9721149802207947]
	},
	{
		"bufferView":5,
		"type":"VEC2",
		"componentType":5126,
		"count":80,
		"byteOffset":24,
		"min":[0.0,
		0.0],
		"max":[1.0,
		1.0]
	},
	{
		"bufferView":6,
		"type":"SCALAR",
		"componentType":5123,
		"count":306,
		"byteOffset":0,
		"min":[0],
		"max":[203]
	},
	{
		"bufferView":7,
		"type":"VEC3",
		"componentType":5126,
		"count":204,
		"byteOffset":0,
		"min":[-3.6447277069091799,
		0.20490746200084687,
		1.896288275718689],
		"max":[-1.7524744272232056,
		1.7732338905334473,
		3.666001319885254]
	},
	{
		"bufferView":7,
		"type":"VEC3",
		"componentType":5126,
		"count":204,
		"byteOffset":12,
		"min":[-0.9721149802207947,
		-1.0,
		-0.9721149802207947],
		"max":[0.9721149802207947,
		1.0,
		0.9721149802207947]
	},
	{
		"bufferView":7,
		"type":"VEC2",
		"componentType":5126,
		"count":204,
		"byteOffset":24,
		"min":[0.0,
		0.0],
		"max":[1.0,
		1.0]
	},
	{
		"bufferView":8,
		"type":"SCALAR",
		"componentType":5123,
		"count":54,
		"byteOffset":0,
		"min":[0],
		"max":[35]
	},
	{
		"bufferView":9,
		"type":"VEC3",
		"componentType":5126,
		"count":36,
		"byteOffset":0,
		"min":[-3.6447277069091799,
		0.727682888507843,
		1.7737481594085694],
		"max":[-1.7524744272232056,
		1.7732338905334473,
		3.666001319885254]
	},
	{
		"bufferView":9,
		"type":"VEC3",
		"componentType":5126,
		"count":36,
		"byteOffset":12,
		"min":[0.0,
		1.0,
		0.0],
		"max":[0.0,
		1.0,
		0.0]
	},
	{
		"bufferView":9,
		"type":"VEC2",
		"componentType":5126,
		"count":36,
		"byteOffset":24,
		"min":[0.0,
		0.0],
		"max":[1.0,
		1.0]
	}],
	"bufferViews":[{
		"buffer":0,
		"byteOffset":0,
		"byteLength":72,
		"target":34963
	},
	{
		"buffer":0,
		"byteOffset":72,
		"byteLength":768,
		"target":34962,
		"byteStride":32
	},
	{
		"buffer":1,
		"byteOffset":0,
		"byteLength":552,
		"target":34963
	},
	{
		"buffer":1,
		"byteOffset":552,
		"byteLength":5952,
		"target":34962,
		"byteStride":32
	},
	{
		"buffer":2,
		"byteOffset":0,
		"byteLength":240,
		"target":34963
	},
	{
		"buffer":2,
		"byteOffset":240,
		"byteLength":2560,
		"target":34962,
		"byteStride":32
	},
	{
		"buffer":3,
		"byteOffset":0,
		"byteLength":612,
		"target":34963
	},
	{
		"buffer":3,
		"byteOffset":612,
		"byteLength":6528,
		"target":34962,
		"byteStride":32
	},
	{
		"buffer":4,
		"byteOffset":0,
		"byteLength":108,
		"target":34963
	},
	{
		"buffer":4,
		"byteOffset":108,
		"byteLength":1152,
		"target":34962,
		"byteStride":32
	}],
	"buffers":[{
		"uri":"data:application/octet-stream;base64,",
		"byteLength":840
	},
	{
		"uri":"data:application/octet-stream;base64,",
		"byteLength":6504
	},
	{
		"uri":"data:application/octet-stream;base64,",
		"byteLength":2800
	},
	{
		"uri":"data:application/octet-stream;base64,",
		"byteLength":7140
	},
	{
		"uri":"data:application/octet-stream;base64,",
		"byteLength":1260
	}],
	"materials":[{
		"alphaMode":"OPAQUE",
		"pbrMetallicRoughness":{
			"baseColorFactor":[0.800000011920929,
			0.800000011920929,
			0.800000011920929,
			1.0],
			"metallicFactor":1.0,
			"roughnessFactor":0.0
		},
		"emissiveFactor":[0.0,
		0.0,
		0.0],
		"doubleSided":false,
		"name":"Material"
	},
	{
		"alphaMode":"OPAQUE",
		"pbrMetallicRoughness":{
			"baseColorFactor":[0.1490200012922287,
			0.1333329975605011,
			0.20784300565719605,
			1.0],
			"metallicFactor":1.0,
			"roughnessFactor":0.49999988079071047
		},
		"emissiveFactor":[0.0,
		0.0,
		0.0],
		"doubleSided":false,
		"name":"Mat.2_1"
	},
	{
		"alphaMode":"OPAQUE",
		"pbrMetallicRoughness":{
			"baseColorFactor":[0.23137299716472624,
			0.3098039925098421,
			0.9019610285758972,
			1.0],
			"metallicFactor":1.0,
			"roughnessFactor":0.49999988079071047
		},
		"emissiveFactor":[0.0,
		0.0,
		0.0],
		"doubleSided":false,
		"name":"Mat.1_1"
	},
	{
		"alphaMode":"OPAQUE",
		"pbrMetallicRoughness":{
			"baseColorFactor":[1.0,
			1.0,
			1.0,
			1.0],
			"metallicFactor":1.0,
			"roughnessFactor":1.0
		},
		"emissiveFactor":[0.0,
		0.0,
		0.0],
		"doubleSided":false,
		"name":"default"
	},
	{
		"alphaMode":"OPAQUE",
		"pbrMetallicRoughness":{
			"baseColorFactor":[0.9882349967956543,
			0.3215689957141876,
			0.5215690135955808,
			1.0],
			"metallicFactor":1.0,
			"roughnessFactor":0.49999988079071047
		},
		"emissiveFactor":[0.0,
		0.0,
		0.0],
		"doubleSided":false,
		"name":"Mat_1"
	}]
}