# Blender 3.1.0
# www.blender.org
mtllib urbanescapeobj2.mtl
o Cube
v -269.598724 99.168465 271.726074
v -269.598724 98.645683 271.726074
v -269.598724 99.168465 272.248840
v -269.598724 98.645683 272.248840
v -270.121490 99.168465 271.726074
v -270.121490 98.645683 271.726074
v -270.121490 99.168465 272.248840
v -270.121490 98.645683 272.248840
vn -0.0000 0.2614 -0.0000
vn -0.0000 -0.0000 0.2614
vn -0.2614 -0.0000 -0.0000
vn -0.0000 -0.2614 -0.0000
vn 0.2614 -0.0000 -0.0000
vn -0.0000 -0.0000 -0.2614
vt 0.625000 0.500000
vt 0.375000 0.500000
vt 0.625000 0.750000
vt 0.375000 0.750000
vt 0.875000 0.500000
vt 0.625000 0.250000
vt 0.125000 0.500000
vt 0.375000 0.250000
vt 0.875000 0.750000
vt 0.625000 1.000000
vt 0.625000 0.000000
vt 0.375000 1.000000
vt 0.375000 0.000000
vt 0.125000 0.750000
s 0
usemtl Material
f 1/1/1 5/5/1 7/9/1 3/3/1
f 4/4/2 3/3/2 7/10/2 8/12/2
f 8/13/3 7/11/3 5/6/3 6/8/3
f 6/7/4 2/2/4 4/4/4 8/14/4
f 2/2/5 1/1/5 3/3/5 4/4/5
f 6/8/6 5/6/6 1/1/6 2/2/6
o Cloner
v -327.710602 20.490746 366.600098
v -327.710602 72.768288 366.600098
v -339.964661 72.768295 315.779053
v -339.964661 20.490753 315.779053
v -289.143616 20.490753 303.524994
v -276.889557 20.490746 354.346069
v -238.322556 20.490761 291.270935
v -226.068497 20.490753 342.091980
v -276.889557 20.490746 354.346069
v -289.143616 20.490753 303.524994
v -187.501495 20.490761 279.016876
v -187.501495 72.768303 279.016907
v -175.247437 72.768295 329.837952
v -175.247437 20.490753 329.837952
v -238.322556 20.490761 291.270935
v -238.322556 72.768295 291.270966
v -226.068497 20.490753 342.091980
v -289.143616 72.768295 303.524994
v -289.143616 125.045837 303.525024
v -276.889557 125.045830 354.346069
v -276.889557 72.768288 354.346069
v -327.710602 72.768288 366.600098
v -327.710602 125.045830 366.600128
v -339.964661 125.045837 315.779083
v -339.964661 72.768295 315.779053
v -187.501495 72.768303 279.016907
v -187.501495 125.045845 279.016907
v -175.247437 125.045837 329.837952
v -175.247437 72.768295 329.837952
v -238.322556 72.768295 291.270966
v -238.322556 125.045837 291.270966
v -226.068497 72.768295 342.092010
v -226.068497 125.045837 342.092010
v -289.143616 125.045837 303.525024
v -289.143616 177.323380 303.525024
v -276.889557 177.323364 354.346069
v -276.889557 125.045830 354.346069
v -327.710602 125.045830 366.600128
v -327.710602 177.323364 366.600128
v -339.964661 177.323380 315.779083
v -339.964661 125.045837 315.779083
v -187.501495 125.045845 279.016907
v -187.501495 177.323395 279.016907
v -175.247437 177.323380 329.837952
v -175.247437 125.045837 329.837952
v -238.322556 125.045837 291.270966
v -238.322556 177.323395 291.270966
v -226.068497 125.045837 342.092010
v -226.068497 177.323380 342.092041
v -339.964661 20.490753 315.779053
v -339.964661 72.768295 315.779053
v -352.218719 72.768303 264.958008
v -352.218719 20.490761 264.958008
v -301.397675 20.490761 252.703949
v -289.143616 20.490753 303.524994
v -250.576614 20.490768 240.449890
v -238.322556 20.490761 291.270935
v -289.143616 20.490753 303.524994
v -301.397675 20.490761 252.703949
v -199.755554 20.490768 228.195831
v -199.755554 67.540558 228.195847
v -187.501495 67.540550 279.016907
v -187.501495 20.490761 279.016876
v -238.322556 20.490761 291.270935
v -250.576614 20.490768 240.449890
v -301.397675 72.768311 252.703949
v -301.397675 125.045853 252.703964
v -289.143616 125.045837 303.525024
v -289.143616 72.768295 303.524994
v -339.964661 72.768295 315.779053
v -339.964661 125.045837 315.779083
v -352.218719 125.045845 264.958008
v -352.218719 72.768303 264.958008
v -199.755554 77.996063 228.195847
v -199.755554 119.818100 228.195847
v -187.501495 119.818085 279.016907
v -187.501495 77.996056 279.016907
v -238.322556 77.996056 291.270966
v -238.322556 119.818085 291.270966
v -250.576614 119.818100 240.449905
v -250.576614 77.996063 240.449905
v -301.397675 125.045853 252.703964
v -301.397675 177.323395 252.703979
v -289.143616 177.323380 303.525024
v -289.143616 125.045837 303.525024
v -339.964661 125.045837 315.779083
v -339.964661 177.323380 315.779083
v -352.218719 177.323395 264.958038
v -352.218719 125.045845 264.958008
v -199.755554 130.273605 228.195847
v -199.755554 177.323395 228.195862
v -187.501495 177.323395 279.016907
v -187.501495 130.273590 279.016907
v -238.322556 130.273590 291.270966
v -238.322556 177.323395 291.270966
v -250.576614 177.323395 240.449921
v -250.576614 130.273605 240.449905
v -352.218719 20.490761 264.958008
v -352.218719 72.768303 264.958008
v -364.472778 72.768311 214.136963
v -364.472778 20.490768 214.136948
v -313.651733 20.490768 201.882889
v -301.397675 20.490761 252.703949
v -262.830658 20.490776 189.628830
v -250.576614 20.490768 240.449890
v -301.397675 20.490761 252.703949
v -313.651733 20.490768 201.882889
v -212.009613 20.490776 177.374786
v -212.009613 67.540565 177.374786
v -199.755554 67.540558 228.195847
v -199.755554 20.490768 228.195831
v -250.576614 20.490768 240.449890
v -262.830658 20.490776 189.628830
v -313.651733 72.768311 201.882904
v -313.651733 125.045853 201.882904
v -301.397675 125.045853 252.703964
v -301.397675 72.768311 252.703949
v -352.218719 72.768303 264.958008
v -352.218719 125.045845 264.958008
v -364.472778 125.045853 214.136963
v -364.472778 72.768311 214.136963
v -204.604980 77.996063 208.083862
v -204.604980 119.818100 208.083862
v -199.755554 119.818100 228.195847
v -199.755554 77.996063 228.195847
v -250.576614 77.996063 240.449905
v -250.576614 119.818100 240.449905
v -255.426041 119.818100 220.337921
v -255.426041 77.996063 220.337921
v -313.651733 125.045853 201.882904
v -313.651733 177.323395 201.882919
v -301.397675 177.323395 252.703979
v -301.397675 125.045853 252.703964
v -352.218719 125.045845 264.958008
v -352.218719 177.323395 264.958038
v -364.472778 177.323395 214.136963
v -364.472778 125.045853 214.136963
v -212.009613 130.273621 177.374802
v -212.009613 177.323395 177.374817
v -199.755554 177.323395 228.195862
v -199.755554 130.273605 228.195847
v -250.576614 130.273605 240.449905
v -250.576614 177.323395 240.449921
v -262.830658 177.323395 189.628860
v -262.830658 130.273605 189.628845
v -276.889557 72.768288 354.346069
v -226.068497 72.768295 342.092010
v -276.889557 72.768288 354.346069
v -226.068497 72.768295 342.092010
v -250.576614 72.768311 240.449905
v -238.322556 72.768295 291.270966
v -250.576614 67.540558 240.449890
v -238.322556 67.540543 291.270935
v -313.651733 72.768311 201.882904
v -262.830658 72.768318 189.628845
v -250.576614 72.768311 240.449905
v -313.651733 72.768311 201.882904
v -262.830658 67.540565 189.628845
v -250.576614 67.540558 240.449890
v -289.143616 72.768295 303.524994
v -238.322556 72.768295 291.270966
v -289.143616 72.768295 303.524994
v -289.143616 72.768295 303.524994
v -301.397675 72.768311 252.703949
v -289.143616 72.768295 303.524994
v -301.397675 72.768311 252.703949
v -301.397675 72.768311 252.703949
v -301.397675 72.768311 252.703949
vn -0.2541 -0.0000 0.0613
vn -0.0000 -0.2614 -0.0000
vn 0.2541 -0.0000 -0.0613
vn -0.0613 -0.0000 -0.2541
vn 0.0613 -0.0000 0.2541
vn -0.0000 0.2614 -0.0000
vt 1.000000 0.000000
vt 0.000000 1.000000
vt 0.000000 0.000000
vt 1.000000 1.000000
vt 0.000000 1.000000
vt 0.000000 0.000000
vt 1.000000 1.000000
vt 0.000000 1.000000
vt 0.000000 0.000000
vt 1.000000 0.000000
vt 1.000000 0.000000
vt 0.000000 0.000000
vt 1.000000 1.000000
vt 1.000000 0.000000
vt 0.000000 0.000000
vt 1.000000 0.000000
vt 0.000000 0.000000
vt 1.000000 1.000000
vt 1.000000 0.000000
vt 0.000000 0.000000
vt 0.000000 1.000000
vt 0.000000 0.000000
vt 1.000000 0.000000
vt 1.000000 0.000000
vt 0.000000 0.000000
vt 0.000000 0.000000
vt 1.000000 0.000000
vt 0.000000 1.000000
vt 1.000000 1.000000
vt 0.000000 1.000000
vt 1.000000 1.000000
vt 1.000000 0.000000
vt 0.000000 0.000000
vt 1.000000 1.000000
vt 1.000000 0.000000
vt 1.000000 0.000000
vt 0.000000 0.000000
vt 1.000000 1.000000
vt 0.000000 1.000000
vt 0.000000 1.000000
vt 0.000000 0.000000
vt 1.000000 0.000000
vt 0.000000 0.000000
vt 1.000000 0.000000
vt 0.000000 1.000000
vt 1.000000 1.000000
vt 0.000000 1.000000
vt 1.000000 1.000000
vt 1.000000 0.000000
vt 0.000000 0.000000
vt 1.000000 0.000000
vt 1.000000 1.000000
vt 1.000000 0.000000
vt 0.000000 0.000000
vt 0.000000 1.000000
vt 1.000000 1.000000
vt 0.000000 1.000000
vt 0.000000 0.000000
vt 1.000000 1.000000
vt 0.000000 1.000000
vt 1.000000 0.000000
vt 0.000000 0.000000
vt 0.000000 0.000000
vt 1.000000 0.000000
vt 0.000000 1.000000
vt 1.000000 1.000000
vt 0.000000 1.000000
vt 1.000000 1.000000
vt 1.000000 0.000000
vt 0.000000 0.000000
vt 1.000000 0.000000
vt 1.000000 1.000000
vt 1.000000 0.000000
vt 0.000000 0.000000
vt 1.000000 1.000000
vt 0.000000 1.000000
vt 1.000000 0.000000
vt 0.000000 0.000000
vt 0.000000 1.000000
vt 1.000000 1.000000
vt 0.000000 1.000000
vt 0.000000 0.000000
vt 0.000000 0.000000
vt 1.000000 0.000000
vt 0.000000 1.000000
vt 1.000000 1.000000
vt 0.000000 1.000000
vt 1.000000 1.000000
vt 1.000000 0.000000
vt 0.000000 0.000000
vt 1.000000 0.000000
vt 1.000000 1.000000
vt 1.000000 0.000000
vt 0.000000 0.000000
vt 0.000000 1.000000
vt 1.000000 1.000000
vt 0.000000 1.000000
vt 0.000000 0.000000
vt 1.000000 1.000000
vt 0.000000 1.000000
vt 1.000000 0.000000
vt 0.000000 0.000000
vt 0.000000 0.000000
vt 1.000000 0.000000
vt 0.000000 1.000000
vt 1.000000 1.000000
vt 0.000000 1.000000
vt 1.000000 1.000000
vt 1.000000 0.000000
vt 0.000000 0.000000
vt 1.000000 0.000000
vt 1.000000 1.000000
vt 1.000000 0.000000
vt 0.000000 0.000000
vt 1.000000 1.000000
vt 0.000000 1.000000
vt 1.000000 0.000000
vt 0.000000 0.000000
vt 0.000000 1.000000
vt 1.000000 1.000000
vt 0.000000 1.000000
vt 0.000000 0.000000
vt 1.000000 0.000000
vt 0.000000 1.000000
vt 0.000000 0.000000
vt 1.000000 1.000000
vt 0.000000 1.000000
vt 0.000000 0.000000
vt 1.000000 1.000000
vt 0.000000 1.000000
vt 0.000000 0.000000
vt 1.000000 0.000000
vt 1.000000 0.000000
vt 0.000000 0.000000
vt 1.000000 1.000000
vt 1.000000 0.000000
vt 0.000000 0.000000
vt 1.000000 0.000000
vt 0.000000 0.000000
vt 1.000000 1.000000
vt 0.000000 0.000000
vt 1.000000 0.000000
vt 0.000000 1.000000
vt 0.000000 0.000000
vt 1.000000 0.000000
vt 1.000000 0.000000
vt 0.000000 0.000000
vt 1.000000 0.000000
vt 0.000000 0.000000
vt 1.000000 1.000000
vt 0.000000 1.000000
vt 0.000000 1.000000
vt 1.000000 0.000000
vt 1.000000 1.000000
vt 0.000000 0.000000
vt 1.000000 1.000000
vt 1.000000 0.000000
vt 0.000000 1.000000
vt 0.000000 0.000000
vt 1.000000 0.000000
vt 1.000000 0.000000
vt 0.000000 0.000000
vt 0.000000 0.000000
vt 1.000000 0.000000
vt 0.000000 1.000000
vt 1.000000 1.000000
vt 0.000000 1.000000
vt 1.000000 1.000000
vt 1.000000 0.000000
vt 0.000000 0.000000
vt 1.000000 0.000000
vt 1.000000 1.000000
vt 1.000000 0.000000
vt 0.000000 0.000000
vt 0.000000 1.000000
vt 1.000000 1.000000
vt 0.000000 1.000000
vt 0.000000 0.000000
vt 1.000000 1.000000
vt 0.000000 1.000000
vt 1.000000 0.000000
vt 0.000000 0.000000
vt 1.000000 0.000000
vt 0.000000 0.000000
vt 1.000000 1.000000
vt 0.000000 1.000000
vt 0.000000 1.000000
vt 1.000000 0.000000
vt 1.000000 1.000000
vt 0.000000 0.000000
vt 1.000000 1.000000
vt 1.000000 0.000000
vt 1.000000 0.000000
vt 0.000000 1.000000
vt 0.000000 0.000000
vt 1.000000 1.000000
vt 0.000000 0.000000
vt 0.000000 1.000000
vt 0.000000 1.000000
vt 1.000000 1.000000
vt 0.000000 0.000000
vt 1.000000 0.000000
vt 0.000000 0.000000
vt 1.000000 0.000000
vt 0.000000 1.000000
vt 1.000000 1.000000
vt 0.000000 1.000000
vt 1.000000 1.000000
vt 1.000000 0.000000
vt 0.000000 0.000000
vt 1.000000 0.000000
vt 1.000000 1.000000
vt 1.000000 0.000000
vt 0.000000 0.000000
vt 0.000000 1.000000
vt 1.000000 1.000000
vt 0.000000 1.000000
vt 0.000000 0.000000
vt 1.000000 1.000000
vt 0.000000 1.000000
vt 1.000000 0.000000
vt 0.000000 0.000000
vt 1.000000 0.000000
vt 0.000000 0.000000
vt 0.000000 1.000000
vt 1.000000 1.000000
vt 0.000000 1.000000
vt 1.000000 1.000000
vt 1.000000 0.000000
vt 0.000000 0.000000
vt 1.000000 1.000000
vt 1.000000 0.000000
vt 1.000000 0.000000
vt 0.000000 1.000000
vt 0.000000 0.000000
vt 1.000000 1.000000
vt 0.000000 1.000000
vt 0.000000 0.000000
vt 1.000000 1.000000
vt 0.000000 1.000000
vt 0.000000 0.000000
vt 1.000000 0.000000
vt 1.000000 0.000000
vt 0.000000 1.000000
vt 0.000000 0.000000
vt 1.000000 1.000000
vt 0.000000 1.000000
vt 0.000000 0.000000
vt 1.000000 1.000000
vt 0.000000 1.000000
vt 0.000000 0.000000
vt 1.000000 0.000000
vt 0.000000 0.000000
vt 1.000000 0.000000
vt 1.000000 1.000000
vt 1.000000 0.000000
vt 0.000000 0.000000
vt 1.000000 0.000000
vt 0.000000 0.000000
vt 1.000000 1.000000
vt 0.000000 0.000000
vt 1.000000 0.000000
vt 0.000000 1.000000
vt 0.000000 0.000000
vt 1.000000 0.000000
vt 1.000000 0.000000
vt 0.000000 0.000000
vt 1.000000 0.000000
vt 0.000000 0.000000
vt 0.000000 1.000000
vt 1.000000 1.000000
vt 0.000000 1.000000
vt 1.000000 0.000000
vt 1.000000 1.000000
vt 0.000000 0.000000
vt 1.000000 1.000000
vt 1.000000 0.000000
vt 0.000000 1.000000
vt 0.000000 0.000000
vt 1.000000 0.000000
vt 1.000000 0.000000
vt 0.000000 0.000000
vt 0.000000 0.000000
vt 1.000000 0.000000
vt 0.000000 1.000000
vt 1.000000 1.000000
vt 0.000000 1.000000
vt 1.000000 1.000000
vt 1.000000 0.000000
vt 0.000000 0.000000
vt 1.000000 0.000000
vt 1.000000 1.000000
vt 1.000000 0.000000
vt 0.000000 0.000000
vt 0.000000 1.000000
vt 1.000000 1.000000
vt 0.000000 1.000000
vt 0.000000 0.000000
vt 1.000000 1.000000
vt 0.000000 1.000000
vt 1.000000 0.000000
vt 0.000000 0.000000
vt 1.000000 0.000000
vt 0.000000 0.000000
vt 0.000000 1.000000
vt 1.000000 1.000000
vt 0.000000 1.000000
vt 1.000000 0.000000
vt 1.000000 1.000000
vt 0.000000 0.000000
vt 1.000000 1.000000
vt 1.000000 0.000000
vt 1.000000 0.000000
vt 0.000000 1.000000
vt 0.000000 0.000000
vt 1.000000 1.000000
vt 0.000000 0.000000
vt 0.000000 1.000000
vt 1.000000 1.000000
vt 0.000000 1.000000
vt 0.000000 0.000000
vt 1.000000 0.000000
vt 0.000000 0.000000
vt 1.000000 0.000000
vt 0.000000 1.000000
vt 1.000000 1.000000
vt 0.000000 1.000000
vt 1.000000 1.000000
vt 1.000000 0.000000
vt 0.000000 0.000000
vt 1.000000 0.000000
vt 1.000000 1.000000
vt 1.000000 0.000000
vt 0.000000 0.000000
vt 0.000000 1.000000
vt 1.000000 1.000000
vt 0.000000 1.000000
vt 0.000000 0.000000
vt 1.000000 1.000000
vt 0.000000 1.000000
vt 1.000000 0.000000
vt 0.000000 0.000000
vt 1.000000 0.000000
vt 0.000000 0.000000
vt 0.000000 1.000000
vt 1.000000 1.000000
vt 0.000000 1.000000
vt 1.000000 1.000000
vt 1.000000 0.000000
vt 0.000000 0.000000
vt 1.000000 1.000000
vt 1.000000 0.000000
vt 1.000000 0.000000
vt 0.000000 1.000000
vt 0.000000 0.000000
vt 1.000000 1.000000
vt 0.000000 1.000000
vt 0.000000 0.000000
vt 1.000000 1.000000
vt 0.000000 1.000000
vt 0.000000 0.000000
vt 1.000000 0.000000
vt 1.000000 1.000000
vt 0.000000 1.000000
vt 1.000000 0.000000
vt 1.000000 1.000000
vt 0.000000 1.000000
vt 1.000000 0.000000
vt 0.000000 1.000000
vt 1.000000 1.000000
vt 0.000000 0.000000
vt 0.000000 1.000000
vt 1.000000 1.000000
vt 0.000000 0.000000
vt 0.000000 1.000000
vt 1.000000 1.000000
vt 0.000000 1.000000
vt 1.000000 1.000000
vt 1.000000 0.000000
vt 1.000000 1.000000
vt 0.000000 1.000000
vt 0.000000 0.000000
vt 0.000000 1.000000
vt 1.000000 1.000000
vt 0.000000 1.000000
vt 1.000000 1.000000
vt 0.000000 1.000000
vt 1.000000 1.000000
vt 0.000000 1.000000
vt 1.000000 1.000000
vt 1.000000 0.000000
vt 1.000000 1.000000
vt 0.000000 1.000000
vt 1.000000 1.000000
vt 0.000000 1.000000
vt 0.000000 0.000000
vt 0.000000 1.000000
vt 1.000000 1.000000
vt 0.000000 1.000000
vt 1.000000 1.000000
vt 0.000000 1.000000
vt 1.000000 1.000000
vt 1.000000 1.000000
vt 0.000000 1.000000
vt 1.000000 1.000000
vt 0.000000 1.000000
vt 1.000000 0.000000
vt 0.000000 1.000000
vt 1.000000 1.000000
vt 0.000000 1.000000
vt 1.000000 1.000000
vt 0.000000 0.000000
vt 1.000000 1.000000
vt 0.000000 1.000000
vt 1.000000 1.000000
vt 0.000000 1.000000
vt 1.000000 0.000000
vt 0.000000 1.000000
vt 1.000000 1.000000
vt 0.000000 0.000000
s 1
usemtl Mat.2_1
f 9/15/7 10/18/7 11/22/7 12/23/7
f 13/25/8 14/27/8 9/16/8 12/23/8
f 15/30/8 16/32/8 17/35/8 18/39/8
f 19/41/9 20/43/9 21/44/9 22/47/9
f 23/50/10 24/52/10 20/42/10 19/40/10
f 19/41/8 22/48/8 25/54/8 23/51/8
f 26/58/9 27/60/9 28/61/9 29/64/9
f 30/67/7 31/70/7 32/74/7 33/76/7
f 34/78/9 35/80/9 36/81/9 37/84/9
f 38/87/10 39/89/10 35/79/10 34/77/10
f 40/91/7 41/94/7 39/90/7 38/88/7
f 42/98/9 43/100/9 44/101/9 45/104/9
f 46/107/7 47/110/7 48/114/7 49/116/7
f 50/118/9 51/120/9 52/121/9 53/124/9
f 54/127/10 55/129/10 51/119/10 50/117/10
f 56/131/7 57/134/7 55/130/7 54/128/7
f 58/137/7 59/140/7 60/144/7 61/145/7
f 62/147/8 63/149/8 58/138/8 61/145/8
f 64/152/8 65/154/8 66/157/8 67/161/8
f 68/162/9 69/164/9 70/166/9 71/169/9
f 68/162/8 71/170/8 72/172/8 73/176/8
f 74/178/9 75/180/9 76/181/9 77/184/9
f 78/187/7 79/190/7 80/194/7 81/196/7
f 82/197/9 83/199/9 84/201/9 85/204/9
f 86/207/7 87/210/7 88/213/7 89/215/7
f 82/197/8 85/205/8 86/208/8 89/215/8
f 90/218/9 91/220/9 92/221/9 93/224/9
f 94/227/7 95/230/7 96/234/7 97/236/7
f 98/237/9 99/240/9 100/241/9 101/244/9
f 102/247/7 103/250/7 104/254/7 105/255/7
f 98/237/8 101/245/8 102/248/8 105/255/8
f 106/257/7 107/260/7 108/264/7 109/265/7
f 110/268/8 111/269/8 106/258/8 109/265/8
f 112/272/8 113/274/8 114/277/8 115/281/8
f 116/282/9 117/285/9 118/286/9 119/289/9
f 116/282/8 119/290/8 120/292/8 121/296/8
f 122/298/9 123/300/9 124/301/9 125/304/9
f 126/307/7 127/310/7 128/314/7 129/316/7
f 130/317/9 131/320/9 132/321/9 133/324/9
f 134/327/7 135/330/7 136/334/7 137/335/7
f 130/317/8 133/325/8 134/328/8 137/335/8
f 138/338/9 139/340/9 140/341/9 141/344/9
f 142/347/7 143/350/7 144/354/7 145/356/7
f 146/357/9 147/360/9 148/361/9 149/364/9
f 150/367/7 151/370/7 152/374/7 153/375/7
f 146/357/8 149/365/8 150/368/8 153/375/8
usemtl Mat.1_1
f 14/28/11 154/377/11 10/19/11 9/17/11
f 16/33/11 155/380/11 156/383/11 17/36/11
f 22/49/11 21/45/11 157/386/11 25/55/11
f 29/65/11 28/62/11 31/71/11 30/68/11
f 37/85/11 36/82/11 41/95/11 40/92/11
f 45/105/11 44/102/11 47/111/11 46/108/11
f 53/125/11 52/122/11 57/135/11 56/132/11
f 64/152/9 158/390/9 159/391/9 65/155/9
f 70/167/12 69/164/12 160/395/12 161/396/12
f 84/202/12 83/199/12 88/213/12 87/211/12
f 109/266/10 108/263/10 162/399/10 110/267/10
f 112/272/9 163/402/9 164/403/9 113/275/9
f 115/280/10 165/406/10 163/401/10 112/273/10
f 121/295/10 166/408/10 117/284/10 116/283/10
f 118/287/12 117/285/12 166/409/12 167/410/12
f 129/315/10 128/313/10 123/299/10 122/297/10
f 137/336/10 136/333/10 131/319/10 130/318/10
f 132/322/12 131/320/12 136/334/12 135/331/12
f 145/355/10 144/353/10 139/339/10 138/337/10
f 153/376/10 152/373/10 147/359/10 146/358/10
usemtl default
f 13/25/9 168/414/9 154/378/9 14/29/9
f 12/24/10 11/21/10 168/413/10 13/26/10
f 154/379/12 168/414/12 11/22/12 10/20/12
f 15/30/9 169/416/9 155/381/9 16/34/9
f 18/38/10 170/417/10 169/415/10 15/31/10
f 17/37/7 156/384/7 170/418/7 18/39/7
f 25/56/7 157/387/7 24/53/7 23/51/7
f 21/46/12 20/43/12 24/53/12 157/388/12
f 33/75/10 32/73/10 27/59/10 26/57/10
f 28/63/12 27/60/12 32/74/12 31/72/12
f 26/58/8 29/66/8 30/69/8 33/76/8
f 36/83/12 35/80/12 39/90/12 41/96/12
f 34/78/8 37/86/8 40/93/8 38/88/8
f 49/115/10 48/113/10 43/99/10 42/97/10
f 42/98/8 45/106/8 46/109/8 49/116/8
f 50/118/8 53/126/8 56/133/8 54/128/8
f 63/150/11 171/419/11 59/141/11 58/139/11
f 62/147/9 172/423/9 171/420/9 63/151/9
f 61/146/10 60/143/10 172/422/10 62/148/10
f 171/421/12 172/423/12 60/144/12 59/142/12
f 65/156/11 159/392/11 173/424/11 66/158/11
f 67/160/10 174/427/10 158/389/10 64/153/10
f 66/159/7 173/425/7 174/428/7 67/161/7
f 71/171/11 70/168/11 161/397/11 72/173/11
f 73/175/10 160/394/10 69/165/10 68/163/10
f 72/174/7 161/398/7 160/395/7 73/176/7
f 77/185/11 76/182/11 79/191/11 78/188/11
f 81/195/10 80/193/10 75/179/10 74/177/10
f 76/183/12 75/180/12 80/194/12 79/192/12
f 74/178/8 77/186/8 78/189/8 81/196/8
f 85/206/11 84/203/11 87/212/11 86/209/11
f 89/216/10 88/214/10 83/200/10 82/198/10
f 93/225/11 92/222/11 95/231/11 94/228/11
f 97/235/10 96/233/10 91/219/10 90/217/10
f 90/218/8 93/226/8 94/229/8 97/236/8
f 101/246/11 100/242/11 103/251/11 102/249/11
f 105/256/10 104/253/10 99/239/10 98/238/10
f 111/270/11 175/429/11 107/261/11 106/259/11
f 110/268/9 162/400/9 175/430/9 111/271/9
f 175/431/12 162/400/12 108/264/12 107/262/12
f 113/276/11 164/404/11 176/432/11 114/278/11
f 114/279/7 176/433/7 165/407/7 115/281/7
f 119/291/11 118/288/11 167/411/11 120/293/11
f 120/294/7 167/412/7 166/409/7 121/296/7
f 125/305/11 124/302/11 127/311/11 126/308/11
f 124/303/12 123/300/12 128/314/12 127/312/12
f 122/298/8 125/306/8 126/309/8 129/316/8
f 133/326/11 132/323/11 135/332/11 134/329/11
f 141/345/11 140/342/11 143/351/11 142/348/11
f 138/338/8 141/346/8 142/349/8 145/356/8
f 149/366/11 148/362/11 151/371/11 150/369/11
usemtl Mat_1
f 155/382/12 169/416/12 170/418/12 156/385/12
f 44/103/12 43/100/12 48/114/12 47/112/12
f 52/123/12 51/120/12 55/130/12 57/136/12
f 159/393/12 158/390/12 174/428/12 173/426/12
f 92/223/12 91/220/12 96/234/12 95/232/12
f 100/243/12 99/240/12 104/254/12 103/252/12
f 164/405/12 163/402/12 165/407/12 176/434/12
f 140/343/12 139/340/12 144/354/12 143/352/12
f 148/363/12 147/360/12 152/374/12 151/372/12
